<?xml version="1.0" encoding="utf-8"?>
<svg xmlns="http://www.w3.org/2000/svg" xmlns:xlink="http://www.w3.org/1999/xlink" xml:space="preserve" width="1076.25" height="1076.25" viewBox="0 0 1076.25 1076.25"><rect width="1076.25" height="1076.25" fill="#ffffff" x="44.84375" y="44.84375"/><g transform="scale(44.84375)" fill="#000000"><path d="M21,1c1.1,0,2,0.9,2,2v18c0,1.1-0.9,2-2,2H3c-1.1,0-2-0.9-2-2V3c0-1.1,0.9-2,2-2H21 M21,0H3C1.34,0,0,1.34,0,3v18  c0,1.66,1.34,3,3,3h18c1.66,0,3-1.34,3-3V3C24,1.34,22.66,0,21,0L21,0z"/></g><g fill="#000000">
<g transform="translate(296.625,107.625) scale(3.605)"><rect width="6" height="6"/></g>
<g transform="translate(359.625,107.625) scale(3.605)"><rect width="6" height="6"/></g>
<g transform="translate(464.625,107.625) scale(3.605)"><rect width="6" height="6"/></g>
<g transform="translate(485.625,107.625) scale(3.605)"><rect width="6" height="6"/></g>
<g transform="translate(506.625,107.625) scale(3.605)"><rect width="6" height="6"/></g>
<g transform="translate(527.625,107.625) scale(3.605)"><rect width="6" height="6"/></g>
<g transform="translate(548.625,107.625) scale(3.605)"><rect width="6" height="6"/></g>
<g transform="translate(632.625,107.625) scale(3.605)"><rect width="6" height="6"/></g>
<g transform="translate(737.625,107.625) scale(3.605)"><rect width="6" height="6"/></g>
<g transform="translate(296.625,128.625) scale(3.605)"><rect width="6" height="6"/></g>
<g transform="translate(338.625,128.625) scale(3.605)"><rect width="6" height="6"/></g>
<g transform="translate(380.625,128.625) scale(3.605)"><rect width="6" height="6"/></g>
<g transform="translate(422.625,128.625) scale(3.605)"><rect width="6" height="6"/></g>
<g transform="translate(464.625,128.625) scale(3.605)"><rect width="6" height="6"/></g>
<g transform="translate(527.625,128.625) scale(3.605)"><rect width="6" height="6"/></g>
<g transform="translate(548.625,128.625) scale(3.605)"><rect width="6" height="6"/></g>
<g transform="translate(611.625,128.625) scale(3.605)"><rect width="6" height="6"/></g>
<g transform="translate(632.625,128.625) scale(3.605)"><rect width="6" height="6"/></g>
<g transform="translate(653.625,128.625) scale(3.605)"><rect width="6" height="6"/></g>
<g transform="translate(674.625,128.625) scale(3.605)"><rect width="6" height="6"/></g>
<g transform="translate(695.625,128.625) scale(3.605)"><rect width="6" height="6"/></g>
<g transform="translate(737.625,128.625) scale(3.605)"><rect width="6" height="6"/></g>
<g transform="translate(779.625,128.625) scale(3.605)"><rect width="6" height="6"/></g>
<g transform="translate(275.625,149.625) scale(3.605)"><rect width="6" height="6"/></g>
<g transform="translate(296.625,149.625) scale(3.605)"><rect width="6" height="6"/></g>
<g transform="translate(317.625,149.625) scale(3.605)"><rect width="6" height="6"/></g>
<g transform="translate(359.625,149.625) scale(3.605)"><rect width="6" height="6"/></g>
<g transform="translate(380.625,149.625) scale(3.605)"><rect width="6" height="6"/></g>
<g transform="translate(422.625,149.625) scale(3.605)"><rect width="6" height="6"/></g>
<g transform="translate(443.625,149.625) scale(3.605)"><rect width="6" height="6"/></g>
<g transform="translate(464.625,149.625) scale(3.605)"><rect width="6" height="6"/></g>
<g transform="translate(485.625,149.625) scale(3.605)"><rect width="6" height="6"/></g>
<g transform="translate(527.625,149.625) scale(3.605)"><rect width="6" height="6"/></g>
<g transform="translate(548.625,149.625) scale(3.605)"><rect width="6" height="6"/></g>
<g transform="translate(569.625,149.625) scale(3.605)"><rect width="6" height="6"/></g>
<g transform="translate(590.625,149.625) scale(3.605)"><rect width="6" height="6"/></g>
<g transform="translate(632.625,149.625) scale(3.605)"><rect width="6" height="6"/></g>
<g transform="translate(674.625,149.625) scale(3.605)"><rect width="6" height="6"/></g>
<g transform="translate(695.625,149.625) scale(3.605)"><rect width="6" height="6"/></g>
<g transform="translate(779.625,149.625) scale(3.605)"><rect width="6" height="6"/></g>
<g transform="translate(275.625,170.625) scale(3.605)"><rect width="6" height="6"/></g>
<g transform="translate(317.625,170.625) scale(3.605)"><rect width="6" height="6"/></g>
<g transform="translate(380.625,170.625) scale(3.605)"><rect width="6" height="6"/></g>
<g transform="translate(401.625,170.625) scale(3.605)"><rect width="6" height="6"/></g>
<g transform="translate(506.625,170.625) scale(3.605)"><rect width="6" height="6"/></g>
<g transform="translate(548.625,170.625) scale(3.605)"><rect width="6" height="6"/></g>
<g transform="translate(653.625,170.625) scale(3.605)"><rect width="6" height="6"/></g>
<g transform="translate(737.625,170.625) scale(3.605)"><rect width="6" height="6"/></g>
<g transform="translate(758.625,170.625) scale(3.605)"><rect width="6" height="6"/></g>
<g transform="translate(779.625,170.625) scale(3.605)"><rect width="6" height="6"/></g>
<g transform="translate(275.625,191.625) scale(3.605)"><rect width="6" height="6"/></g>
<g transform="translate(317.625,191.625) scale(3.605)"><rect width="6" height="6"/></g>
<g transform="translate(338.625,191.625) scale(3.605)"><rect width="6" height="6"/></g>
<g transform="translate(422.625,191.625) scale(3.605)"><rect width="6" height="6"/></g>
<g transform="translate(464.625,191.625) scale(3.605)"><rect width="6" height="6"/></g>
<g transform="translate(485.625,191.625) scale(3.605)"><rect width="6" height="6"/></g>
<g transform="translate(506.625,191.625) scale(3.605)"><rect width="6" height="6"/></g>
<g transform="translate(527.625,191.625) scale(3.605)"><rect width="6" height="6"/></g>
<g transform="translate(548.625,191.625) scale(3.605)"><rect width="6" height="6"/></g>
<g transform="translate(569.625,191.625) scale(3.605)"><rect width="6" height="6"/></g>
<g transform="translate(590.625,191.625) scale(3.605)"><rect width="6" height="6"/></g>
<g transform="translate(632.625,191.625) scale(3.605)"><rect width="6" height="6"/></g>
<g transform="translate(695.625,191.625) scale(3.605)"><rect width="6" height="6"/></g>
<g transform="translate(716.625,191.625) scale(3.605)"><rect width="6" height="6"/></g>
<g transform="translate(275.625,212.625) scale(3.605)"><rect width="6" height="6"/></g>
<g transform="translate(359.625,212.625) scale(3.605)"><rect width="6" height="6"/></g>
<g transform="translate(380.625,212.625) scale(3.605)"><rect width="6" height="6"/></g>
<g transform="translate(422.625,212.625) scale(3.605)"><rect width="6" height="6"/></g>
<g transform="translate(548.625,212.625) scale(3.605)"><rect width="6" height="6"/></g>
<g transform="translate(611.625,212.625) scale(3.605)"><rect width="6" height="6"/></g>
<g transform="translate(632.625,212.625) scale(3.605)"><rect width="6" height="6"/></g>
<g transform="translate(653.625,212.625) scale(3.605)"><rect width="6" height="6"/></g>
<g transform="translate(674.625,212.625) scale(3.605)"><rect width="6" height="6"/></g>
<g transform="translate(716.625,212.625) scale(3.605)"><rect width="6" height="6"/></g>
<g transform="translate(758.625,212.625) scale(3.605)"><rect width="6" height="6"/></g>
<g transform="translate(275.625,233.625) scale(3.605)"><rect width="6" height="6"/></g>
<g transform="translate(317.625,233.625) scale(3.605)"><rect width="6" height="6"/></g>
<g transform="translate(359.625,233.625) scale(3.605)"><rect width="6" height="6"/></g>
<g transform="translate(401.625,233.625) scale(3.605)"><rect width="6" height="6"/></g>
<g transform="translate(443.625,233.625) scale(3.605)"><rect width="6" height="6"/></g>
<g transform="translate(485.625,233.625) scale(3.605)"><rect width="6" height="6"/></g>
<g transform="translate(527.625,233.625) scale(3.605)"><rect width="6" height="6"/></g>
<g transform="translate(569.625,233.625) scale(3.605)"><rect width="6" height="6"/></g>
<g transform="translate(611.625,233.625) scale(3.605)"><rect width="6" height="6"/></g>
<g transform="translate(653.625,233.625) scale(3.605)"><rect width="6" height="6"/></g>
<g transform="translate(695.625,233.625) scale(3.605)"><rect width="6" height="6"/></g>
<g transform="translate(737.625,233.625) scale(3.605)"><rect width="6" height="6"/></g>
<g transform="translate(779.625,233.625) scale(3.605)"><rect width="6" height="6"/></g>
<g transform="translate(275.625,254.625) scale(3.605)"><rect width="6" height="6"/></g>
<g transform="translate(296.625,254.625) scale(3.605)"><rect width="6" height="6"/></g>
<g transform="translate(338.625,254.625) scale(3.605)"><rect width="6" height="6"/></g>
<g transform="translate(359.625,254.625) scale(3.605)"><rect width="6" height="6"/></g>
<g transform="translate(443.625,254.625) scale(3.605)"><rect width="6" height="6"/></g>
<g transform="translate(485.625,254.625) scale(3.605)"><rect width="6" height="6"/></g>
<g transform="translate(506.625,254.625) scale(3.605)"><rect width="6" height="6"/></g>
<g transform="translate(548.625,254.625) scale(3.605)"><rect width="6" height="6"/></g>
<g transform="translate(569.625,254.625) scale(3.605)"><rect width="6" height="6"/></g>
<g transform="translate(653.625,254.625) scale(3.605)"><rect width="6" height="6"/></g>
<g transform="translate(695.625,254.625) scale(3.605)"><rect width="6" height="6"/></g>
<g transform="translate(107.625,275.625) scale(3.605)"><rect width="6" height="6"/></g>
<g transform="translate(149.625,275.625) scale(3.605)"><rect width="6" height="6"/></g>
<g transform="translate(170.625,275.625) scale(3.605)"><rect width="6" height="6"/></g>
<g transform="translate(191.625,275.625) scale(3.605)"><rect width="6" height="6"/></g>
<g transform="translate(212.625,275.625) scale(3.605)"><rect width="6" height="6"/></g>
<g transform="translate(233.625,275.625) scale(3.605)"><rect width="6" height="6"/></g>
<g transform="translate(296.625,275.625) scale(3.605)"><rect width="6" height="6"/></g>
<g transform="translate(338.625,275.625) scale(3.605)"><rect width="6" height="6"/></g>
<g transform="translate(380.625,275.625) scale(3.605)"><rect width="6" height="6"/></g>
<g transform="translate(422.625,275.625) scale(3.605)"><rect width="6" height="6"/></g>
<g transform="translate(485.625,275.625) scale(3.605)"><rect width="6" height="6"/></g>
<g transform="translate(506.625,275.625) scale(3.605)"><rect width="6" height="6"/></g>
<g transform="translate(527.625,275.625) scale(3.605)"><rect width="6" height="6"/></g>
<g transform="translate(548.625,275.625) scale(3.605)"><rect width="6" height="6"/></g>
<g transform="translate(611.625,275.625) scale(3.605)"><rect width="6" height="6"/></g>
<g transform="translate(632.625,275.625) scale(3.605)"><rect width="6" height="6"/></g>
<g transform="translate(653.625,275.625) scale(3.605)"><rect width="6" height="6"/></g>
<g transform="translate(716.625,275.625) scale(3.605)"><rect width="6" height="6"/></g>
<g transform="translate(758.625,275.625) scale(3.605)"><rect width="6" height="6"/></g>
<g transform="translate(821.625,275.625) scale(3.605)"><rect width="6" height="6"/></g>
<g transform="translate(842.625,275.625) scale(3.605)"><rect width="6" height="6"/></g>
<g transform="translate(863.625,275.625) scale(3.605)"><rect width="6" height="6"/></g>
<g transform="translate(884.625,275.625) scale(3.605)"><rect width="6" height="6"/></g>
<g transform="translate(905.625,275.625) scale(3.605)"><rect width="6" height="6"/></g>
<g transform="translate(107.625,296.625) scale(3.605)"><rect width="6" height="6"/></g>
<g transform="translate(149.625,296.625) scale(3.605)"><rect width="6" height="6"/></g>
<g transform="translate(170.625,296.625) scale(3.605)"><rect width="6" height="6"/></g>
<g transform="translate(191.625,296.625) scale(3.605)"><rect width="6" height="6"/></g>
<g transform="translate(212.625,296.625) scale(3.605)"><rect width="6" height="6"/></g>
<g transform="translate(296.625,296.625) scale(3.605)"><rect width="6" height="6"/></g>
<g transform="translate(338.625,296.625) scale(3.605)"><rect width="6" height="6"/></g>
<g transform="translate(380.625,296.625) scale(3.605)"><rect width="6" height="6"/></g>
<g transform="translate(401.625,296.625) scale(3.605)"><rect width="6" height="6"/></g>
<g transform="translate(422.625,296.625) scale(3.605)"><rect width="6" height="6"/></g>
<g transform="translate(527.625,296.625) scale(3.605)"><rect width="6" height="6"/></g>
<g transform="translate(548.625,296.625) scale(3.605)"><rect width="6" height="6"/></g>
<g transform="translate(653.625,296.625) scale(3.605)"><rect width="6" height="6"/></g>
<g transform="translate(695.625,296.625) scale(3.605)"><rect width="6" height="6"/></g>
<g transform="translate(716.625,296.625) scale(3.605)"><rect width="6" height="6"/></g>
<g transform="translate(737.625,296.625) scale(3.605)"><rect width="6" height="6"/></g>
<g transform="translate(758.625,296.625) scale(3.605)"><rect width="6" height="6"/></g>
<g transform="translate(779.625,296.625) scale(3.605)"><rect width="6" height="6"/></g>
<g transform="translate(800.625,296.625) scale(3.605)"><rect width="6" height="6"/></g>
<g transform="translate(842.625,296.625) scale(3.605)"><rect width="6" height="6"/></g>
<g transform="translate(863.625,296.625) scale(3.605)"><rect width="6" height="6"/></g>
<g transform="translate(905.625,296.625) scale(3.605)"><rect width="6" height="6"/></g>
<g transform="translate(926.625,296.625) scale(3.605)"><rect width="6" height="6"/></g>
<g transform="translate(149.625,317.625) scale(3.605)"><rect width="6" height="6"/></g>
<g transform="translate(170.625,317.625) scale(3.605)"><rect width="6" height="6"/></g>
<g transform="translate(191.625,317.625) scale(3.605)"><rect width="6" height="6"/></g>
<g transform="translate(212.625,317.625) scale(3.605)"><rect width="6" height="6"/></g>
<g transform="translate(233.625,317.625) scale(3.605)"><rect width="6" height="6"/></g>
<g transform="translate(254.625,317.625) scale(3.605)"><rect width="6" height="6"/></g>
<g transform="translate(275.625,317.625) scale(3.605)"><rect width="6" height="6"/></g>
<g transform="translate(317.625,317.625) scale(3.605)"><rect width="6" height="6"/></g>
<g transform="translate(338.625,317.625) scale(3.605)"><rect width="6" height="6"/></g>
<g transform="translate(380.625,317.625) scale(3.605)"><rect width="6" height="6"/></g>
<g transform="translate(401.625,317.625) scale(3.605)"><rect width="6" height="6"/></g>
<g transform="translate(422.625,317.625) scale(3.605)"><rect width="6" height="6"/></g>
<g transform="translate(443.625,317.625) scale(3.605)"><rect width="6" height="6"/></g>
<g transform="translate(464.625,317.625) scale(3.605)"><rect width="6" height="6"/></g>
<g transform="translate(506.625,317.625) scale(3.605)"><rect width="6" height="6"/></g>
<g transform="translate(548.625,317.625) scale(3.605)"><rect width="6" height="6"/></g>
<g transform="translate(569.625,317.625) scale(3.605)"><rect width="6" height="6"/></g>
<g transform="translate(590.625,317.625) scale(3.605)"><rect width="6" height="6"/></g>
<g transform="translate(632.625,317.625) scale(3.605)"><rect width="6" height="6"/></g>
<g transform="translate(653.625,317.625) scale(3.605)"><rect width="6" height="6"/></g>
<g transform="translate(674.625,317.625) scale(3.605)"><rect width="6" height="6"/></g>
<g transform="translate(716.625,317.625) scale(3.605)"><rect width="6" height="6"/></g>
<g transform="translate(737.625,317.625) scale(3.605)"><rect width="6" height="6"/></g>
<g transform="translate(821.625,317.625) scale(3.605)"><rect width="6" height="6"/></g>
<g transform="translate(947.625,317.625) scale(3.605)"><rect width="6" height="6"/></g>
<g transform="translate(170.625,338.625) scale(3.605)"><rect width="6" height="6"/></g>
<g transform="translate(317.625,338.625) scale(3.605)"><rect width="6" height="6"/></g>
<g transform="translate(338.625,338.625) scale(3.605)"><rect width="6" height="6"/></g>
<g transform="translate(359.625,338.625) scale(3.605)"><rect width="6" height="6"/></g>
<g transform="translate(401.625,338.625) scale(3.605)"><rect width="6" height="6"/></g>
<g transform="translate(422.625,338.625) scale(3.605)"><rect width="6" height="6"/></g>
<g transform="translate(464.625,338.625) scale(3.605)"><rect width="6" height="6"/></g>
<g transform="translate(548.625,338.625) scale(3.605)"><rect width="6" height="6"/></g>
<g transform="translate(569.625,338.625) scale(3.605)"><rect width="6" height="6"/></g>
<g transform="translate(590.625,338.625) scale(3.605)"><rect width="6" height="6"/></g>
<g transform="translate(653.625,338.625) scale(3.605)"><rect width="6" height="6"/></g>
<g transform="translate(674.625,338.625) scale(3.605)"><rect width="6" height="6"/></g>
<g transform="translate(737.625,338.625) scale(3.605)"><rect width="6" height="6"/></g>
<g transform="translate(779.625,338.625) scale(3.605)"><rect width="6" height="6"/></g>
<g transform="translate(800.625,338.625) scale(3.605)"><rect width="6" height="6"/></g>
<g transform="translate(842.625,338.625) scale(3.605)"><rect width="6" height="6"/></g>
<g transform="translate(863.625,338.625) scale(3.605)"><rect width="6" height="6"/></g>
<g transform="translate(884.625,338.625) scale(3.605)"><rect width="6" height="6"/></g>
<g transform="translate(149.625,359.625) scale(3.605)"><rect width="6" height="6"/></g>
<g transform="translate(170.625,359.625) scale(3.605)"><rect width="6" height="6"/></g>
<g transform="translate(191.625,359.625) scale(3.605)"><rect width="6" height="6"/></g>
<g transform="translate(233.625,359.625) scale(3.605)"><rect width="6" height="6"/></g>
<g transform="translate(254.625,359.625) scale(3.605)"><rect width="6" height="6"/></g>
<g transform="translate(275.625,359.625) scale(3.605)"><rect width="6" height="6"/></g>
<g transform="translate(338.625,359.625) scale(3.605)"><rect width="6" height="6"/></g>
<g transform="translate(380.625,359.625) scale(3.605)"><rect width="6" height="6"/></g>
<g transform="translate(443.625,359.625) scale(3.605)"><rect width="6" height="6"/></g>
<g transform="translate(464.625,359.625) scale(3.605)"><rect width="6" height="6"/></g>
<g transform="translate(527.625,359.625) scale(3.605)"><rect width="6" height="6"/></g>
<g transform="translate(611.625,359.625) scale(3.605)"><rect width="6" height="6"/></g>
<g transform="translate(632.625,359.625) scale(3.605)"><rect width="6" height="6"/></g>
<g transform="translate(695.625,359.625) scale(3.605)"><rect width="6" height="6"/></g>
<g transform="translate(737.625,359.625) scale(3.605)"><rect width="6" height="6"/></g>
<g transform="translate(758.625,359.625) scale(3.605)"><rect width="6" height="6"/></g>
<g transform="translate(800.625,359.625) scale(3.605)"><rect width="6" height="6"/></g>
<g transform="translate(821.625,359.625) scale(3.605)"><rect width="6" height="6"/></g>
<g transform="translate(842.625,359.625) scale(3.605)"><rect width="6" height="6"/></g>
<g transform="translate(884.625,359.625) scale(3.605)"><rect width="6" height="6"/></g>
<g transform="translate(905.625,359.625) scale(3.605)"><rect width="6" height="6"/></g>
<g transform="translate(947.625,359.625) scale(3.605)"><rect width="6" height="6"/></g>
<g transform="translate(107.625,380.625) scale(3.605)"><rect width="6" height="6"/></g>
<g transform="translate(128.625,380.625) scale(3.605)"><rect width="6" height="6"/></g>
<g transform="translate(149.625,380.625) scale(3.605)"><rect width="6" height="6"/></g>
<g transform="translate(212.625,380.625) scale(3.605)"><rect width="6" height="6"/></g>
<g transform="translate(254.625,380.625) scale(3.605)"><rect width="6" height="6"/></g>
<g transform="translate(317.625,380.625) scale(3.605)"><rect width="6" height="6"/></g>
<g transform="translate(338.625,380.625) scale(3.605)"><rect width="6" height="6"/></g>
<g transform="translate(359.625,380.625) scale(3.605)"><rect width="6" height="6"/></g>
<g transform="translate(401.625,380.625) scale(3.605)"><rect width="6" height="6"/></g>
<g transform="translate(422.625,380.625) scale(3.605)"><rect width="6" height="6"/></g>
<g transform="translate(464.625,380.625) scale(3.605)"><rect width="6" height="6"/></g>
<g transform="translate(485.625,380.625) scale(3.605)"><rect width="6" height="6"/></g>
<g transform="translate(548.625,380.625) scale(3.605)"><rect width="6" height="6"/></g>
<g transform="translate(632.625,380.625) scale(3.605)"><rect width="6" height="6"/></g>
<g transform="translate(674.625,380.625) scale(3.605)"><rect width="6" height="6"/></g>
<g transform="translate(716.625,380.625) scale(3.605)"><rect width="6" height="6"/></g>
<g transform="translate(779.625,380.625) scale(3.605)"><rect width="6" height="6"/></g>
<g transform="translate(800.625,380.625) scale(3.605)"><rect width="6" height="6"/></g>
<g transform="translate(863.625,380.625) scale(3.605)"><rect width="6" height="6"/></g>
<g transform="translate(884.625,380.625) scale(3.605)"><rect width="6" height="6"/></g>
<g transform="translate(905.625,380.625) scale(3.605)"><rect width="6" height="6"/></g>
<g transform="translate(926.625,380.625) scale(3.605)"><rect width="6" height="6"/></g>
<g transform="translate(107.625,401.625) scale(3.605)"><rect width="6" height="6"/></g>
<g transform="translate(149.625,401.625) scale(3.605)"><rect width="6" height="6"/></g>
<g transform="translate(233.625,401.625) scale(3.605)"><rect width="6" height="6"/></g>
<g transform="translate(254.625,401.625) scale(3.605)"><rect width="6" height="6"/></g>
<g transform="translate(317.625,401.625) scale(3.605)"><rect width="6" height="6"/></g>
<g transform="translate(338.625,401.625) scale(3.605)"><rect width="6" height="6"/></g>
<g transform="translate(359.625,401.625) scale(3.605)"><rect width="6" height="6"/></g>
<g transform="translate(401.625,401.625) scale(3.605)"><rect width="6" height="6"/></g>
<g transform="translate(422.625,401.625) scale(3.605)"><rect width="6" height="6"/></g>
<g transform="translate(443.625,401.625) scale(3.605)"><rect width="6" height="6"/></g>
<g transform="translate(527.625,401.625) scale(3.605)"><rect width="6" height="6"/></g>
<g transform="translate(569.625,401.625) scale(3.605)"><rect width="6" height="6"/></g>
<g transform="translate(590.625,401.625) scale(3.605)"><rect width="6" height="6"/></g>
<g transform="translate(611.625,401.625) scale(3.605)"><rect width="6" height="6"/></g>
<g transform="translate(632.625,401.625) scale(3.605)"><rect width="6" height="6"/></g>
<g transform="translate(653.625,401.625) scale(3.605)"><rect width="6" height="6"/></g>
<g transform="translate(674.625,401.625) scale(3.605)"><rect width="6" height="6"/></g>
<g transform="translate(695.625,401.625) scale(3.605)"><rect width="6" height="6"/></g>
<g transform="translate(716.625,401.625) scale(3.605)"><rect width="6" height="6"/></g>
<g transform="translate(737.625,401.625) scale(3.605)"><rect width="6" height="6"/></g>
<g transform="translate(758.625,401.625) scale(3.605)"><rect width="6" height="6"/></g>
<g transform="translate(800.625,401.625) scale(3.605)"><rect width="6" height="6"/></g>
<g transform="translate(821.625,401.625) scale(3.605)"><rect width="6" height="6"/></g>
<g transform="translate(842.625,401.625) scale(3.605)"><rect width="6" height="6"/></g>
<g transform="translate(863.625,401.625) scale(3.605)"><rect width="6" height="6"/></g>
<g transform="translate(884.625,401.625) scale(3.605)"><rect width="6" height="6"/></g>
<g transform="translate(926.625,401.625) scale(3.605)"><rect width="6" height="6"/></g>
<g transform="translate(947.625,401.625) scale(3.605)"><rect width="6" height="6"/></g>
<g transform="translate(107.625,422.625) scale(3.605)"><rect width="6" height="6"/></g>
<g transform="translate(128.625,422.625) scale(3.605)"><rect width="6" height="6"/></g>
<g transform="translate(149.625,422.625) scale(3.605)"><rect width="6" height="6"/></g>
<g transform="translate(170.625,422.625) scale(3.605)"><rect width="6" height="6"/></g>
<g transform="translate(191.625,422.625) scale(3.605)"><rect width="6" height="6"/></g>
<g transform="translate(212.625,422.625) scale(3.605)"><rect width="6" height="6"/></g>
<g transform="translate(275.625,422.625) scale(3.605)"><rect width="6" height="6"/></g>
<g transform="translate(317.625,422.625) scale(3.605)"><rect width="6" height="6"/></g>
<g transform="translate(380.625,422.625) scale(3.605)"><rect width="6" height="6"/></g>
<g transform="translate(401.625,422.625) scale(3.605)"><rect width="6" height="6"/></g>
<g transform="translate(422.625,422.625) scale(3.605)"><rect width="6" height="6"/></g>
<g transform="translate(464.625,422.625) scale(3.605)"><rect width="6" height="6"/></g>
<g transform="translate(485.625,422.625) scale(3.605)"><rect width="6" height="6"/></g>
<g transform="translate(548.625,422.625) scale(3.605)"><rect width="6" height="6"/></g>
<g transform="translate(590.625,422.625) scale(3.605)"><rect width="6" height="6"/></g>
<g transform="translate(632.625,422.625) scale(3.605)"><rect width="6" height="6"/></g>
<g transform="translate(674.625,422.625) scale(3.605)"><rect width="6" height="6"/></g>
<g transform="translate(716.625,422.625) scale(3.605)"><rect width="6" height="6"/></g>
<g transform="translate(758.625,422.625) scale(3.605)"><rect width="6" height="6"/></g>
<g transform="translate(779.625,422.625) scale(3.605)"><rect width="6" height="6"/></g>
<g transform="translate(800.625,422.625) scale(3.605)"><rect width="6" height="6"/></g>
<g transform="translate(821.625,422.625) scale(3.605)"><rect width="6" height="6"/></g>
<g transform="translate(863.625,422.625) scale(3.605)"><rect width="6" height="6"/></g>
<g transform="translate(884.625,422.625) scale(3.605)"><rect width="6" height="6"/></g>
<g transform="translate(905.625,422.625) scale(3.605)"><rect width="6" height="6"/></g>
<g transform="translate(926.625,422.625) scale(3.605)"><rect width="6" height="6"/></g>
<g transform="translate(947.625,422.625) scale(3.605)"><rect width="6" height="6"/></g>
<g transform="translate(107.625,443.625) scale(3.605)"><rect width="6" height="6"/></g>
<g transform="translate(149.625,443.625) scale(3.605)"><rect width="6" height="6"/></g>
<g transform="translate(191.625,443.625) scale(3.605)"><rect width="6" height="6"/></g>
<g transform="translate(212.625,443.625) scale(3.605)"><rect width="6" height="6"/></g>
<g transform="translate(233.625,443.625) scale(3.605)"><rect width="6" height="6"/></g>
<g transform="translate(296.625,443.625) scale(3.605)"><rect width="6" height="6"/></g>
<g transform="translate(317.625,443.625) scale(3.605)"><rect width="6" height="6"/></g>
<g transform="translate(338.625,443.625) scale(3.605)"><rect width="6" height="6"/></g>
<g transform="translate(359.625,443.625) scale(3.605)"><rect width="6" height="6"/></g>
<g transform="translate(380.625,443.625) scale(3.605)"><rect width="6" height="6"/></g>
<g transform="translate(401.625,443.625) scale(3.605)"><rect width="6" height="6"/></g>
<g transform="translate(464.625,443.625) scale(3.605)"><rect width="6" height="6"/></g>
<g transform="translate(485.625,443.625) scale(3.605)"><rect width="6" height="6"/></g>
<g transform="translate(548.625,443.625) scale(3.605)"><rect width="6" height="6"/></g>
<g transform="translate(590.625,443.625) scale(3.605)"><rect width="6" height="6"/></g>
<g transform="translate(611.625,443.625) scale(3.605)"><rect width="6" height="6"/></g>
<g transform="translate(674.625,443.625) scale(3.605)"><rect width="6" height="6"/></g>
<g transform="translate(716.625,443.625) scale(3.605)"><rect width="6" height="6"/></g>
<g transform="translate(758.625,443.625) scale(3.605)"><rect width="6" height="6"/></g>
<g transform="translate(800.625,443.625) scale(3.605)"><rect width="6" height="6"/></g>
<g transform="translate(842.625,443.625) scale(3.605)"><rect width="6" height="6"/></g>
<g transform="translate(905.625,443.625) scale(3.605)"><rect width="6" height="6"/></g>
<g transform="translate(926.625,443.625) scale(3.605)"><rect width="6" height="6"/></g>
<g transform="translate(947.625,443.625) scale(3.605)"><rect width="6" height="6"/></g>
<g transform="translate(149.625,464.625) scale(3.605)"><rect width="6" height="6"/></g>
<g transform="translate(191.625,464.625) scale(3.605)"><rect width="6" height="6"/></g>
<g transform="translate(359.625,464.625) scale(3.605)"><rect width="6" height="6"/></g>
<g transform="translate(401.625,464.625) scale(3.605)"><rect width="6" height="6"/></g>
<g transform="translate(443.625,464.625) scale(3.605)"><rect width="6" height="6"/></g>
<g transform="translate(485.625,464.625) scale(3.605)"><rect width="6" height="6"/></g>
<g transform="translate(527.625,464.625) scale(3.605)"><rect width="6" height="6"/></g>
<g transform="translate(590.625,464.625) scale(3.605)"><rect width="6" height="6"/></g>
<g transform="translate(611.625,464.625) scale(3.605)"><rect width="6" height="6"/></g>
<g transform="translate(695.625,464.625) scale(3.605)"><rect width="6" height="6"/></g>
<g transform="translate(716.625,464.625) scale(3.605)"><rect width="6" height="6"/></g>
<g transform="translate(737.625,464.625) scale(3.605)"><rect width="6" height="6"/></g>
<g transform="translate(779.625,464.625) scale(3.605)"><rect width="6" height="6"/></g>
<g transform="translate(800.625,464.625) scale(3.605)"><rect width="6" height="6"/></g>
<g transform="translate(821.625,464.625) scale(3.605)"><rect width="6" height="6"/></g>
<g transform="translate(863.625,464.625) scale(3.605)"><rect width="6" height="6"/></g>
<g transform="translate(128.625,485.625) scale(3.605)"><rect width="6" height="6"/></g>
<g transform="translate(149.625,485.625) scale(3.605)"><rect width="6" height="6"/></g>
<g transform="translate(191.625,485.625) scale(3.605)"><rect width="6" height="6"/></g>
<g transform="translate(233.625,485.625) scale(3.605)"><rect width="6" height="6"/></g>
<g transform="translate(296.625,485.625) scale(3.605)"><rect width="6" height="6"/></g>
<g transform="translate(317.625,485.625) scale(3.605)"><rect width="6" height="6"/></g>
<g transform="translate(338.625,485.625) scale(3.605)"><rect width="6" height="6"/></g>
<g transform="translate(443.625,485.625) scale(3.605)"><rect width="6" height="6"/></g>
<g transform="translate(485.625,485.625) scale(3.605)"><rect width="6" height="6"/></g>
<g transform="translate(569.625,485.625) scale(3.605)"><rect width="6" height="6"/></g>
<g transform="translate(590.625,485.625) scale(3.605)"><rect width="6" height="6"/></g>
<g transform="translate(611.625,485.625) scale(3.605)"><rect width="6" height="6"/></g>
<g transform="translate(716.625,485.625) scale(3.605)"><rect width="6" height="6"/></g>
<g transform="translate(758.625,485.625) scale(3.605)"><rect width="6" height="6"/></g>
<g transform="translate(779.625,485.625) scale(3.605)"><rect width="6" height="6"/></g>
<g transform="translate(863.625,485.625) scale(3.605)"><rect width="6" height="6"/></g>
<g transform="translate(884.625,485.625) scale(3.605)"><rect width="6" height="6"/></g>
<g transform="translate(905.625,485.625) scale(3.605)"><rect width="6" height="6"/></g>
<g transform="translate(926.625,485.625) scale(3.605)"><rect width="6" height="6"/></g>
<g transform="translate(107.625,506.625) scale(3.605)"><rect width="6" height="6"/></g>
<g transform="translate(128.625,506.625) scale(3.605)"><rect width="6" height="6"/></g>
<g transform="translate(191.625,506.625) scale(3.605)"><rect width="6" height="6"/></g>
<g transform="translate(296.625,506.625) scale(3.605)"><rect width="6" height="6"/></g>
<g transform="translate(380.625,506.625) scale(3.605)"><rect width="6" height="6"/></g>
<g transform="translate(422.625,506.625) scale(3.605)"><rect width="6" height="6"/></g>
<g transform="translate(506.625,506.625) scale(3.605)"><rect width="6" height="6"/></g>
<g transform="translate(527.625,506.625) scale(3.605)"><rect width="6" height="6"/></g>
<g transform="translate(653.625,506.625) scale(3.605)"><rect width="6" height="6"/></g>
<g transform="translate(674.625,506.625) scale(3.605)"><rect width="6" height="6"/></g>
<g transform="translate(695.625,506.625) scale(3.605)"><rect width="6" height="6"/></g>
<g transform="translate(716.625,506.625) scale(3.605)"><rect width="6" height="6"/></g>
<g transform="translate(737.625,506.625) scale(3.605)"><rect width="6" height="6"/></g>
<g transform="translate(779.625,506.625) scale(3.605)"><rect width="6" height="6"/></g>
<g transform="translate(800.625,506.625) scale(3.605)"><rect width="6" height="6"/></g>
<g transform="translate(863.625,506.625) scale(3.605)"><rect width="6" height="6"/></g>
<g transform="translate(884.625,506.625) scale(3.605)"><rect width="6" height="6"/></g>
<g transform="translate(905.625,506.625) scale(3.605)"><rect width="6" height="6"/></g>
<g transform="translate(926.625,506.625) scale(3.605)"><rect width="6" height="6"/></g>
<g transform="translate(107.625,527.625) scale(3.605)"><rect width="6" height="6"/></g>
<g transform="translate(128.625,527.625) scale(3.605)"><rect width="6" height="6"/></g>
<g transform="translate(191.625,527.625) scale(3.605)"><rect width="6" height="6"/></g>
<g transform="translate(233.625,527.625) scale(3.605)"><rect width="6" height="6"/></g>
<g transform="translate(254.625,527.625) scale(3.605)"><rect width="6" height="6"/></g>
<g transform="translate(296.625,527.625) scale(3.605)"><rect width="6" height="6"/></g>
<g transform="translate(317.625,527.625) scale(3.605)"><rect width="6" height="6"/></g>
<g transform="translate(401.625,527.625) scale(3.605)"><rect width="6" height="6"/></g>
<g transform="translate(443.625,527.625) scale(3.605)"><rect width="6" height="6"/></g>
<g transform="translate(485.625,527.625) scale(3.605)"><rect width="6" height="6"/></g>
<g transform="translate(506.625,527.625) scale(3.605)"><rect width="6" height="6"/></g>
<g transform="translate(548.625,527.625) scale(3.605)"><rect width="6" height="6"/></g>
<g transform="translate(569.625,527.625) scale(3.605)"><rect width="6" height="6"/></g>
<g transform="translate(758.625,527.625) scale(3.605)"><rect width="6" height="6"/></g>
<g transform="translate(800.625,527.625) scale(3.605)"><rect width="6" height="6"/></g>
<g transform="translate(863.625,527.625) scale(3.605)"><rect width="6" height="6"/></g>
<g transform="translate(905.625,527.625) scale(3.605)"><rect width="6" height="6"/></g>
<g transform="translate(926.625,527.625) scale(3.605)"><rect width="6" height="6"/></g>
<g transform="translate(947.625,527.625) scale(3.605)"><rect width="6" height="6"/></g>
<g transform="translate(191.625,548.625) scale(3.605)"><rect width="6" height="6"/></g>
<g transform="translate(212.625,548.625) scale(3.605)"><rect width="6" height="6"/></g>
<g transform="translate(254.625,548.625) scale(3.605)"><rect width="6" height="6"/></g>
<g transform="translate(296.625,548.625) scale(3.605)"><rect width="6" height="6"/></g>
<g transform="translate(359.625,548.625) scale(3.605)"><rect width="6" height="6"/></g>
<g transform="translate(380.625,548.625) scale(3.605)"><rect width="6" height="6"/></g>
<g transform="translate(422.625,548.625) scale(3.605)"><rect width="6" height="6"/></g>
<g transform="translate(443.625,548.625) scale(3.605)"><rect width="6" height="6"/></g>
<g transform="translate(464.625,548.625) scale(3.605)"><rect width="6" height="6"/></g>
<g transform="translate(548.625,548.625) scale(3.605)"><rect width="6" height="6"/></g>
<g transform="translate(653.625,548.625) scale(3.605)"><rect width="6" height="6"/></g>
<g transform="translate(695.625,548.625) scale(3.605)"><rect width="6" height="6"/></g>
<g transform="translate(737.625,548.625) scale(3.605)"><rect width="6" height="6"/></g>
<g transform="translate(758.625,548.625) scale(3.605)"><rect width="6" height="6"/></g>
<g transform="translate(779.625,548.625) scale(3.605)"><rect width="6" height="6"/></g>
<g transform="translate(821.625,548.625) scale(3.605)"><rect width="6" height="6"/></g>
<g transform="translate(863.625,548.625) scale(3.605)"><rect width="6" height="6"/></g>
<g transform="translate(884.625,548.625) scale(3.605)"><rect width="6" height="6"/></g>
<g transform="translate(905.625,548.625) scale(3.605)"><rect width="6" height="6"/></g>
<g transform="translate(926.625,548.625) scale(3.605)"><rect width="6" height="6"/></g>
<g transform="translate(947.625,548.625) scale(3.605)"><rect width="6" height="6"/></g>
<g transform="translate(233.625,569.625) scale(3.605)"><rect width="6" height="6"/></g>
<g transform="translate(275.625,569.625) scale(3.605)"><rect width="6" height="6"/></g>
<g transform="translate(359.625,569.625) scale(3.605)"><rect width="6" height="6"/></g>
<g transform="translate(401.625,569.625) scale(3.605)"><rect width="6" height="6"/></g>
<g transform="translate(485.625,569.625) scale(3.605)"><rect width="6" height="6"/></g>
<g transform="translate(569.625,569.625) scale(3.605)"><rect width="6" height="6"/></g>
<g transform="translate(611.625,569.625) scale(3.605)"><rect width="6" height="6"/></g>
<g transform="translate(632.625,569.625) scale(3.605)"><rect width="6" height="6"/></g>
<g transform="translate(674.625,569.625) scale(3.605)"><rect width="6" height="6"/></g>
<g transform="translate(695.625,569.625) scale(3.605)"><rect width="6" height="6"/></g>
<g transform="translate(716.625,569.625) scale(3.605)"><rect width="6" height="6"/></g>
<g transform="translate(737.625,569.625) scale(3.605)"><rect width="6" height="6"/></g>
<g transform="translate(758.625,569.625) scale(3.605)"><rect width="6" height="6"/></g>
<g transform="translate(107.625,590.625) scale(3.605)"><rect width="6" height="6"/></g>
<g transform="translate(128.625,590.625) scale(3.605)"><rect width="6" height="6"/></g>
<g transform="translate(212.625,590.625) scale(3.605)"><rect width="6" height="6"/></g>
<g transform="translate(254.625,590.625) scale(3.605)"><rect width="6" height="6"/></g>
<g transform="translate(275.625,590.625) scale(3.605)"><rect width="6" height="6"/></g>
<g transform="translate(317.625,590.625) scale(3.605)"><rect width="6" height="6"/></g>
<g transform="translate(338.625,590.625) scale(3.605)"><rect width="6" height="6"/></g>
<g transform="translate(401.625,590.625) scale(3.605)"><rect width="6" height="6"/></g>
<g transform="translate(443.625,590.625) scale(3.605)"><rect width="6" height="6"/></g>
<g transform="translate(527.625,590.625) scale(3.605)"><rect width="6" height="6"/></g>
<g transform="translate(611.625,590.625) scale(3.605)"><rect width="6" height="6"/></g>
<g transform="translate(653.625,590.625) scale(3.605)"><rect width="6" height="6"/></g>
<g transform="translate(695.625,590.625) scale(3.605)"><rect width="6" height="6"/></g>
<g transform="translate(758.625,590.625) scale(3.605)"><rect width="6" height="6"/></g>
<g transform="translate(800.625,590.625) scale(3.605)"><rect width="6" height="6"/></g>
<g transform="translate(821.625,590.625) scale(3.605)"><rect width="6" height="6"/></g>
<g transform="translate(842.625,590.625) scale(3.605)"><rect width="6" height="6"/></g>
<g transform="translate(884.625,590.625) scale(3.605)"><rect width="6" height="6"/></g>
<g transform="translate(905.625,590.625) scale(3.605)"><rect width="6" height="6"/></g>
<g transform="translate(926.625,590.625) scale(3.605)"><rect width="6" height="6"/></g>
<g transform="translate(107.625,611.625) scale(3.605)"><rect width="6" height="6"/></g>
<g transform="translate(149.625,611.625) scale(3.605)"><rect width="6" height="6"/></g>
<g transform="translate(191.625,611.625) scale(3.605)"><rect width="6" height="6"/></g>
<g transform="translate(233.625,611.625) scale(3.605)"><rect width="6" height="6"/></g>
<g transform="translate(296.625,611.625) scale(3.605)"><rect width="6" height="6"/></g>
<g transform="translate(338.625,611.625) scale(3.605)"><rect width="6" height="6"/></g>
<g transform="translate(401.625,611.625) scale(3.605)"><rect width="6" height="6"/></g>
<g transform="translate(422.625,611.625) scale(3.605)"><rect width="6" height="6"/></g>
<g transform="translate(485.625,611.625) scale(3.605)"><rect width="6" height="6"/></g>
<g transform="translate(506.625,611.625) scale(3.605)"><rect width="6" height="6"/></g>
<g transform="translate(548.625,611.625) scale(3.605)"><rect width="6" height="6"/></g>
<g transform="translate(632.625,611.625) scale(3.605)"><rect width="6" height="6"/></g>
<g transform="translate(653.625,611.625) scale(3.605)"><rect width="6" height="6"/></g>
<g transform="translate(674.625,611.625) scale(3.605)"><rect width="6" height="6"/></g>
<g transform="translate(716.625,611.625) scale(3.605)"><rect width="6" height="6"/></g>
<g transform="translate(758.625,611.625) scale(3.605)"><rect width="6" height="6"/></g>
<g transform="translate(800.625,611.625) scale(3.605)"><rect width="6" height="6"/></g>
<g transform="translate(905.625,611.625) scale(3.605)"><rect width="6" height="6"/></g>
<g transform="translate(926.625,611.625) scale(3.605)"><rect width="6" height="6"/></g>
<g transform="translate(338.625,632.625) scale(3.605)"><rect width="6" height="6"/></g>
<g transform="translate(422.625,632.625) scale(3.605)"><rect width="6" height="6"/></g>
<g transform="translate(443.625,632.625) scale(3.605)"><rect width="6" height="6"/></g>
<g transform="translate(548.625,632.625) scale(3.605)"><rect width="6" height="6"/></g>
<g transform="translate(590.625,632.625) scale(3.605)"><rect width="6" height="6"/></g>
<g transform="translate(611.625,632.625) scale(3.605)"><rect width="6" height="6"/></g>
<g transform="translate(653.625,632.625) scale(3.605)"><rect width="6" height="6"/></g>
<g transform="translate(695.625,632.625) scale(3.605)"><rect width="6" height="6"/></g>
<g transform="translate(716.625,632.625) scale(3.605)"><rect width="6" height="6"/></g>
<g transform="translate(737.625,632.625) scale(3.605)"><rect width="6" height="6"/></g>
<g transform="translate(758.625,632.625) scale(3.605)"><rect width="6" height="6"/></g>
<g transform="translate(779.625,632.625) scale(3.605)"><rect width="6" height="6"/></g>
<g transform="translate(800.625,632.625) scale(3.605)"><rect width="6" height="6"/></g>
<g transform="translate(884.625,632.625) scale(3.605)"><rect width="6" height="6"/></g>
<g transform="translate(926.625,632.625) scale(3.605)"><rect width="6" height="6"/></g>
<g transform="translate(947.625,632.625) scale(3.605)"><rect width="6" height="6"/></g>
<g transform="translate(128.625,653.625) scale(3.605)"><rect width="6" height="6"/></g>
<g transform="translate(170.625,653.625) scale(3.605)"><rect width="6" height="6"/></g>
<g transform="translate(191.625,653.625) scale(3.605)"><rect width="6" height="6"/></g>
<g transform="translate(212.625,653.625) scale(3.605)"><rect width="6" height="6"/></g>
<g transform="translate(233.625,653.625) scale(3.605)"><rect width="6" height="6"/></g>
<g transform="translate(338.625,653.625) scale(3.605)"><rect width="6" height="6"/></g>
<g transform="translate(380.625,653.625) scale(3.605)"><rect width="6" height="6"/></g>
<g transform="translate(401.625,653.625) scale(3.605)"><rect width="6" height="6"/></g>
<g transform="translate(464.625,653.625) scale(3.605)"><rect width="6" height="6"/></g>
<g transform="translate(527.625,653.625) scale(3.605)"><rect width="6" height="6"/></g>
<g transform="translate(548.625,653.625) scale(3.605)"><rect width="6" height="6"/></g>
<g transform="translate(611.625,653.625) scale(3.605)"><rect width="6" height="6"/></g>
<g transform="translate(653.625,653.625) scale(3.605)"><rect width="6" height="6"/></g>
<g transform="translate(674.625,653.625) scale(3.605)"><rect width="6" height="6"/></g>
<g transform="translate(779.625,653.625) scale(3.605)"><rect width="6" height="6"/></g>
<g transform="translate(821.625,653.625) scale(3.605)"><rect width="6" height="6"/></g>
<g transform="translate(863.625,653.625) scale(3.605)"><rect width="6" height="6"/></g>
<g transform="translate(926.625,653.625) scale(3.605)"><rect width="6" height="6"/></g>
<g transform="translate(128.625,674.625) scale(3.605)"><rect width="6" height="6"/></g>
<g transform="translate(149.625,674.625) scale(3.605)"><rect width="6" height="6"/></g>
<g transform="translate(275.625,674.625) scale(3.605)"><rect width="6" height="6"/></g>
<g transform="translate(296.625,674.625) scale(3.605)"><rect width="6" height="6"/></g>
<g transform="translate(338.625,674.625) scale(3.605)"><rect width="6" height="6"/></g>
<g transform="translate(359.625,674.625) scale(3.605)"><rect width="6" height="6"/></g>
<g transform="translate(401.625,674.625) scale(3.605)"><rect width="6" height="6"/></g>
<g transform="translate(443.625,674.625) scale(3.605)"><rect width="6" height="6"/></g>
<g transform="translate(548.625,674.625) scale(3.605)"><rect width="6" height="6"/></g>
<g transform="translate(611.625,674.625) scale(3.605)"><rect width="6" height="6"/></g>
<g transform="translate(653.625,674.625) scale(3.605)"><rect width="6" height="6"/></g>
<g transform="translate(674.625,674.625) scale(3.605)"><rect width="6" height="6"/></g>
<g transform="translate(695.625,674.625) scale(3.605)"><rect width="6" height="6"/></g>
<g transform="translate(737.625,674.625) scale(3.605)"><rect width="6" height="6"/></g>
<g transform="translate(758.625,674.625) scale(3.605)"><rect width="6" height="6"/></g>
<g transform="translate(779.625,674.625) scale(3.605)"><rect width="6" height="6"/></g>
<g transform="translate(800.625,674.625) scale(3.605)"><rect width="6" height="6"/></g>
<g transform="translate(842.625,674.625) scale(3.605)"><rect width="6" height="6"/></g>
<g transform="translate(863.625,674.625) scale(3.605)"><rect width="6" height="6"/></g>
<g transform="translate(884.625,674.625) scale(3.605)"><rect width="6" height="6"/></g>
<g transform="translate(107.625,695.625) scale(3.605)"><rect width="6" height="6"/></g>
<g transform="translate(233.625,695.625) scale(3.605)"><rect width="6" height="6"/></g>
<g transform="translate(254.625,695.625) scale(3.605)"><rect width="6" height="6"/></g>
<g transform="translate(275.625,695.625) scale(3.605)"><rect width="6" height="6"/></g>
<g transform="translate(359.625,695.625) scale(3.605)"><rect width="6" height="6"/></g>
<g transform="translate(380.625,695.625) scale(3.605)"><rect width="6" height="6"/></g>
<g transform="translate(401.625,695.625) scale(3.605)"><rect width="6" height="6"/></g>
<g transform="translate(506.625,695.625) scale(3.605)"><rect width="6" height="6"/></g>
<g transform="translate(548.625,695.625) scale(3.605)"><rect width="6" height="6"/></g>
<g transform="translate(569.625,695.625) scale(3.605)"><rect width="6" height="6"/></g>
<g transform="translate(632.625,695.625) scale(3.605)"><rect width="6" height="6"/></g>
<g transform="translate(716.625,695.625) scale(3.605)"><rect width="6" height="6"/></g>
<g transform="translate(737.625,695.625) scale(3.605)"><rect width="6" height="6"/></g>
<g transform="translate(758.625,695.625) scale(3.605)"><rect width="6" height="6"/></g>
<g transform="translate(821.625,695.625) scale(3.605)"><rect width="6" height="6"/></g>
<g transform="translate(842.625,695.625) scale(3.605)"><rect width="6" height="6"/></g>
<g transform="translate(863.625,695.625) scale(3.605)"><rect width="6" height="6"/></g>
<g transform="translate(884.625,695.625) scale(3.605)"><rect width="6" height="6"/></g>
<g transform="translate(905.625,695.625) scale(3.605)"><rect width="6" height="6"/></g>
<g transform="translate(947.625,695.625) scale(3.605)"><rect width="6" height="6"/></g>
<g transform="translate(107.625,716.625) scale(3.605)"><rect width="6" height="6"/></g>
<g transform="translate(128.625,716.625) scale(3.605)"><rect width="6" height="6"/></g>
<g transform="translate(149.625,716.625) scale(3.605)"><rect width="6" height="6"/></g>
<g transform="translate(170.625,716.625) scale(3.605)"><rect width="6" height="6"/></g>
<g transform="translate(254.625,716.625) scale(3.605)"><rect width="6" height="6"/></g>
<g transform="translate(275.625,716.625) scale(3.605)"><rect width="6" height="6"/></g>
<g transform="translate(380.625,716.625) scale(3.605)"><rect width="6" height="6"/></g>
<g transform="translate(401.625,716.625) scale(3.605)"><rect width="6" height="6"/></g>
<g transform="translate(422.625,716.625) scale(3.605)"><rect width="6" height="6"/></g>
<g transform="translate(464.625,716.625) scale(3.605)"><rect width="6" height="6"/></g>
<g transform="translate(527.625,716.625) scale(3.605)"><rect width="6" height="6"/></g>
<g transform="translate(611.625,716.625) scale(3.605)"><rect width="6" height="6"/></g>
<g transform="translate(632.625,716.625) scale(3.605)"><rect width="6" height="6"/></g>
<g transform="translate(653.625,716.625) scale(3.605)"><rect width="6" height="6"/></g>
<g transform="translate(674.625,716.625) scale(3.605)"><rect width="6" height="6"/></g>
<g transform="translate(695.625,716.625) scale(3.605)"><rect width="6" height="6"/></g>
<g transform="translate(716.625,716.625) scale(3.605)"><rect width="6" height="6"/></g>
<g transform="translate(800.625,716.625) scale(3.605)"><rect width="6" height="6"/></g>
<g transform="translate(842.625,716.625) scale(3.605)"><rect width="6" height="6"/></g>
<g transform="translate(905.625,716.625) scale(3.605)"><rect width="6" height="6"/></g>
<g transform="translate(926.625,716.625) scale(3.605)"><rect width="6" height="6"/></g>
<g transform="translate(107.625,737.625) scale(3.605)"><rect width="6" height="6"/></g>
<g transform="translate(170.625,737.625) scale(3.605)"><rect width="6" height="6"/></g>
<g transform="translate(212.625,737.625) scale(3.605)"><rect width="6" height="6"/></g>
<g transform="translate(233.625,737.625) scale(3.605)"><rect width="6" height="6"/></g>
<g transform="translate(317.625,737.625) scale(3.605)"><rect width="6" height="6"/></g>
<g transform="translate(338.625,737.625) scale(3.605)"><rect width="6" height="6"/></g>
<g transform="translate(359.625,737.625) scale(3.605)"><rect width="6" height="6"/></g>
<g transform="translate(422.625,737.625) scale(3.605)"><rect width="6" height="6"/></g>
<g transform="translate(464.625,737.625) scale(3.605)"><rect width="6" height="6"/></g>
<g transform="translate(506.625,737.625) scale(3.605)"><rect width="6" height="6"/></g>
<g transform="translate(548.625,737.625) scale(3.605)"><rect width="6" height="6"/></g>
<g transform="translate(653.625,737.625) scale(3.605)"><rect width="6" height="6"/></g>
<g transform="translate(737.625,737.625) scale(3.605)"><rect width="6" height="6"/></g>
<g transform="translate(821.625,737.625) scale(3.605)"><rect width="6" height="6"/></g>
<g transform="translate(842.625,737.625) scale(3.605)"><rect width="6" height="6"/></g>
<g transform="translate(863.625,737.625) scale(3.605)"><rect width="6" height="6"/></g>
<g transform="translate(884.625,737.625) scale(3.605)"><rect width="6" height="6"/></g>
<g transform="translate(926.625,737.625) scale(3.605)"><rect width="6" height="6"/></g>
<g transform="translate(107.625,758.625) scale(3.605)"><rect width="6" height="6"/></g>
<g transform="translate(212.625,758.625) scale(3.605)"><rect width="6" height="6"/></g>
<g transform="translate(275.625,758.625) scale(3.605)"><rect width="6" height="6"/></g>
<g transform="translate(359.625,758.625) scale(3.605)"><rect width="6" height="6"/></g>
<g transform="translate(443.625,758.625) scale(3.605)"><rect width="6" height="6"/></g>
<g transform="translate(464.625,758.625) scale(3.605)"><rect width="6" height="6"/></g>
<g transform="translate(485.625,758.625) scale(3.605)"><rect width="6" height="6"/></g>
<g transform="translate(506.625,758.625) scale(3.605)"><rect width="6" height="6"/></g>
<g transform="translate(527.625,758.625) scale(3.605)"><rect width="6" height="6"/></g>
<g transform="translate(569.625,758.625) scale(3.605)"><rect width="6" height="6"/></g>
<g transform="translate(611.625,758.625) scale(3.605)"><rect width="6" height="6"/></g>
<g transform="translate(695.625,758.625) scale(3.605)"><rect width="6" height="6"/></g>
<g transform="translate(716.625,758.625) scale(3.605)"><rect width="6" height="6"/></g>
<g transform="translate(737.625,758.625) scale(3.605)"><rect width="6" height="6"/></g>
<g transform="translate(821.625,758.625) scale(3.605)"><rect width="6" height="6"/></g>
<g transform="translate(842.625,758.625) scale(3.605)"><rect width="6" height="6"/></g>
<g transform="translate(863.625,758.625) scale(3.605)"><rect width="6" height="6"/></g>
<g transform="translate(926.625,758.625) scale(3.605)"><rect width="6" height="6"/></g>
<g transform="translate(107.625,779.625) scale(3.605)"><rect width="6" height="6"/></g>
<g transform="translate(149.625,779.625) scale(3.605)"><rect width="6" height="6"/></g>
<g transform="translate(170.625,779.625) scale(3.605)"><rect width="6" height="6"/></g>
<g transform="translate(191.625,779.625) scale(3.605)"><rect width="6" height="6"/></g>
<g transform="translate(233.625,779.625) scale(3.605)"><rect width="6" height="6"/></g>
<g transform="translate(254.625,779.625) scale(3.605)"><rect width="6" height="6"/></g>
<g transform="translate(275.625,779.625) scale(3.605)"><rect width="6" height="6"/></g>
<g transform="translate(317.625,779.625) scale(3.605)"><rect width="6" height="6"/></g>
<g transform="translate(338.625,779.625) scale(3.605)"><rect width="6" height="6"/></g>
<g transform="translate(359.625,779.625) scale(3.605)"><rect width="6" height="6"/></g>
<g transform="translate(380.625,779.625) scale(3.605)"><rect width="6" height="6"/></g>
<g transform="translate(401.625,779.625) scale(3.605)"><rect width="6" height="6"/></g>
<g transform="translate(485.625,779.625) scale(3.605)"><rect width="6" height="6"/></g>
<g transform="translate(506.625,779.625) scale(3.605)"><rect width="6" height="6"/></g>
<g transform="translate(611.625,779.625) scale(3.605)"><rect width="6" height="6"/></g>
<g transform="translate(632.625,779.625) scale(3.605)"><rect width="6" height="6"/></g>
<g transform="translate(737.625,779.625) scale(3.605)"><rect width="6" height="6"/></g>
<g transform="translate(779.625,779.625) scale(3.605)"><rect width="6" height="6"/></g>
<g transform="translate(800.625,779.625) scale(3.605)"><rect width="6" height="6"/></g>
<g transform="translate(821.625,779.625) scale(3.605)"><rect width="6" height="6"/></g>
<g transform="translate(842.625,779.625) scale(3.605)"><rect width="6" height="6"/></g>
<g transform="translate(863.625,779.625) scale(3.605)"><rect width="6" height="6"/></g>
<g transform="translate(884.625,779.625) scale(3.605)"><rect width="6" height="6"/></g>
<g transform="translate(905.625,779.625) scale(3.605)"><rect width="6" height="6"/></g>
<g transform="translate(947.625,779.625) scale(3.605)"><rect width="6" height="6"/></g>
<g transform="translate(275.625,800.625) scale(3.605)"><rect width="6" height="6"/></g>
<g transform="translate(296.625,800.625) scale(3.605)"><rect width="6" height="6"/></g>
<g transform="translate(338.625,800.625) scale(3.605)"><rect width="6" height="6"/></g>
<g transform="translate(401.625,800.625) scale(3.605)"><rect width="6" height="6"/></g>
<g transform="translate(464.625,800.625) scale(3.605)"><rect width="6" height="6"/></g>
<g transform="translate(485.625,800.625) scale(3.605)"><rect width="6" height="6"/></g>
<g transform="translate(506.625,800.625) scale(3.605)"><rect width="6" height="6"/></g>
<g transform="translate(548.625,800.625) scale(3.605)"><rect width="6" height="6"/></g>
<g transform="translate(611.625,800.625) scale(3.605)"><rect width="6" height="6"/></g>
<g transform="translate(632.625,800.625) scale(3.605)"><rect width="6" height="6"/></g>
<g transform="translate(737.625,800.625) scale(3.605)"><rect width="6" height="6"/></g>
<g transform="translate(779.625,800.625) scale(3.605)"><rect width="6" height="6"/></g>
<g transform="translate(863.625,800.625) scale(3.605)"><rect width="6" height="6"/></g>
<g transform="translate(884.625,800.625) scale(3.605)"><rect width="6" height="6"/></g>
<g transform="translate(905.625,800.625) scale(3.605)"><rect width="6" height="6"/></g>
<g transform="translate(926.625,800.625) scale(3.605)"><rect width="6" height="6"/></g>
<g transform="translate(317.625,821.625) scale(3.605)"><rect width="6" height="6"/></g>
<g transform="translate(380.625,821.625) scale(3.605)"><rect width="6" height="6"/></g>
<g transform="translate(422.625,821.625) scale(3.605)"><rect width="6" height="6"/></g>
<g transform="translate(443.625,821.625) scale(3.605)"><rect width="6" height="6"/></g>
<g transform="translate(464.625,821.625) scale(3.605)"><rect width="6" height="6"/></g>
<g transform="translate(548.625,821.625) scale(3.605)"><rect width="6" height="6"/></g>
<g transform="translate(590.625,821.625) scale(3.605)"><rect width="6" height="6"/></g>
<g transform="translate(632.625,821.625) scale(3.605)"><rect width="6" height="6"/></g>
<g transform="translate(653.625,821.625) scale(3.605)"><rect width="6" height="6"/></g>
<g transform="translate(674.625,821.625) scale(3.605)"><rect width="6" height="6"/></g>
<g transform="translate(695.625,821.625) scale(3.605)"><rect width="6" height="6"/></g>
<g transform="translate(737.625,821.625) scale(3.605)"><rect width="6" height="6"/></g>
<g transform="translate(758.625,821.625) scale(3.605)"><rect width="6" height="6"/></g>
<g transform="translate(779.625,821.625) scale(3.605)"><rect width="6" height="6"/></g>
<g transform="translate(821.625,821.625) scale(3.605)"><rect width="6" height="6"/></g>
<g transform="translate(863.625,821.625) scale(3.605)"><rect width="6" height="6"/></g>
<g transform="translate(884.625,821.625) scale(3.605)"><rect width="6" height="6"/></g>
<g transform="translate(926.625,821.625) scale(3.605)"><rect width="6" height="6"/></g>
<g transform="translate(947.625,821.625) scale(3.605)"><rect width="6" height="6"/></g>
<g transform="translate(275.625,842.625) scale(3.605)"><rect width="6" height="6"/></g>
<g transform="translate(296.625,842.625) scale(3.605)"><rect width="6" height="6"/></g>
<g transform="translate(338.625,842.625) scale(3.605)"><rect width="6" height="6"/></g>
<g transform="translate(380.625,842.625) scale(3.605)"><rect width="6" height="6"/></g>
<g transform="translate(401.625,842.625) scale(3.605)"><rect width="6" height="6"/></g>
<g transform="translate(443.625,842.625) scale(3.605)"><rect width="6" height="6"/></g>
<g transform="translate(464.625,842.625) scale(3.605)"><rect width="6" height="6"/></g>
<g transform="translate(485.625,842.625) scale(3.605)"><rect width="6" height="6"/></g>
<g transform="translate(527.625,842.625) scale(3.605)"><rect width="6" height="6"/></g>
<g transform="translate(548.625,842.625) scale(3.605)"><rect width="6" height="6"/></g>
<g transform="translate(569.625,842.625) scale(3.605)"><rect width="6" height="6"/></g>
<g transform="translate(632.625,842.625) scale(3.605)"><rect width="6" height="6"/></g>
<g transform="translate(674.625,842.625) scale(3.605)"><rect width="6" height="6"/></g>
<g transform="translate(695.625,842.625) scale(3.605)"><rect width="6" height="6"/></g>
<g transform="translate(779.625,842.625) scale(3.605)"><rect width="6" height="6"/></g>
<g transform="translate(863.625,842.625) scale(3.605)"><rect width="6" height="6"/></g>
<g transform="translate(884.625,842.625) scale(3.605)"><rect width="6" height="6"/></g>
<g transform="translate(905.625,842.625) scale(3.605)"><rect width="6" height="6"/></g>
<g transform="translate(275.625,863.625) scale(3.605)"><rect width="6" height="6"/></g>
<g transform="translate(338.625,863.625) scale(3.605)"><rect width="6" height="6"/></g>
<g transform="translate(359.625,863.625) scale(3.605)"><rect width="6" height="6"/></g>
<g transform="translate(380.625,863.625) scale(3.605)"><rect width="6" height="6"/></g>
<g transform="translate(443.625,863.625) scale(3.605)"><rect width="6" height="6"/></g>
<g transform="translate(506.625,863.625) scale(3.605)"><rect width="6" height="6"/></g>
<g transform="translate(527.625,863.625) scale(3.605)"><rect width="6" height="6"/></g>
<g transform="translate(548.625,863.625) scale(3.605)"><rect width="6" height="6"/></g>
<g transform="translate(590.625,863.625) scale(3.605)"><rect width="6" height="6"/></g>
<g transform="translate(653.625,863.625) scale(3.605)"><rect width="6" height="6"/></g>
<g transform="translate(737.625,863.625) scale(3.605)"><rect width="6" height="6"/></g>
<g transform="translate(779.625,863.625) scale(3.605)"><rect width="6" height="6"/></g>
<g transform="translate(800.625,863.625) scale(3.605)"><rect width="6" height="6"/></g>
<g transform="translate(821.625,863.625) scale(3.605)"><rect width="6" height="6"/></g>
<g transform="translate(842.625,863.625) scale(3.605)"><rect width="6" height="6"/></g>
<g transform="translate(863.625,863.625) scale(3.605)"><rect width="6" height="6"/></g>
<g transform="translate(926.625,863.625) scale(3.605)"><rect width="6" height="6"/></g>
<g transform="translate(947.625,863.625) scale(3.605)"><rect width="6" height="6"/></g>
<g transform="translate(275.625,884.625) scale(3.605)"><rect width="6" height="6"/></g>
<g transform="translate(338.625,884.625) scale(3.605)"><rect width="6" height="6"/></g>
<g transform="translate(359.625,884.625) scale(3.605)"><rect width="6" height="6"/></g>
<g transform="translate(422.625,884.625) scale(3.605)"><rect width="6" height="6"/></g>
<g transform="translate(464.625,884.625) scale(3.605)"><rect width="6" height="6"/></g>
<g transform="translate(485.625,884.625) scale(3.605)"><rect width="6" height="6"/></g>
<g transform="translate(506.625,884.625) scale(3.605)"><rect width="6" height="6"/></g>
<g transform="translate(548.625,884.625) scale(3.605)"><rect width="6" height="6"/></g>
<g transform="translate(569.625,884.625) scale(3.605)"><rect width="6" height="6"/></g>
<g transform="translate(590.625,884.625) scale(3.605)"><rect width="6" height="6"/></g>
<g transform="translate(611.625,884.625) scale(3.605)"><rect width="6" height="6"/></g>
<g transform="translate(674.625,884.625) scale(3.605)"><rect width="6" height="6"/></g>
<g transform="translate(800.625,884.625) scale(3.605)"><rect width="6" height="6"/></g>
<g transform="translate(842.625,884.625) scale(3.605)"><rect width="6" height="6"/></g>
<g transform="translate(884.625,884.625) scale(3.605)"><rect width="6" height="6"/></g>
<g transform="translate(275.625,905.625) scale(3.605)"><rect width="6" height="6"/></g>
<g transform="translate(296.625,905.625) scale(3.605)"><rect width="6" height="6"/></g>
<g transform="translate(317.625,905.625) scale(3.605)"><rect width="6" height="6"/></g>
<g transform="translate(338.625,905.625) scale(3.605)"><rect width="6" height="6"/></g>
<g transform="translate(359.625,905.625) scale(3.605)"><rect width="6" height="6"/></g>
<g transform="translate(422.625,905.625) scale(3.605)"><rect width="6" height="6"/></g>
<g transform="translate(443.625,905.625) scale(3.605)"><rect width="6" height="6"/></g>
<g transform="translate(485.625,905.625) scale(3.605)"><rect width="6" height="6"/></g>
<g transform="translate(506.625,905.625) scale(3.605)"><rect width="6" height="6"/></g>
<g transform="translate(611.625,905.625) scale(3.605)"><rect width="6" height="6"/></g>
<g transform="translate(653.625,905.625) scale(3.605)"><rect width="6" height="6"/></g>
<g transform="translate(674.625,905.625) scale(3.605)"><rect width="6" height="6"/></g>
<g transform="translate(737.625,905.625) scale(3.605)"><rect width="6" height="6"/></g>
<g transform="translate(779.625,905.625) scale(3.605)"><rect width="6" height="6"/></g>
<g transform="translate(800.625,905.625) scale(3.605)"><rect width="6" height="6"/></g>
<g transform="translate(821.625,905.625) scale(3.605)"><rect width="6" height="6"/></g>
<g transform="translate(842.625,905.625) scale(3.605)"><rect width="6" height="6"/></g>
<g transform="translate(863.625,905.625) scale(3.605)"><rect width="6" height="6"/></g>
<g transform="translate(884.625,905.625) scale(3.605)"><rect width="6" height="6"/></g>
<g transform="translate(926.625,905.625) scale(3.605)"><rect width="6" height="6"/></g>
<g transform="translate(296.625,926.625) scale(3.605)"><rect width="6" height="6"/></g>
<g transform="translate(338.625,926.625) scale(3.605)"><rect width="6" height="6"/></g>
<g transform="translate(380.625,926.625) scale(3.605)"><rect width="6" height="6"/></g>
<g transform="translate(401.625,926.625) scale(3.605)"><rect width="6" height="6"/></g>
<g transform="translate(422.625,926.625) scale(3.605)"><rect width="6" height="6"/></g>
<g transform="translate(443.625,926.625) scale(3.605)"><rect width="6" height="6"/></g>
<g transform="translate(464.625,926.625) scale(3.605)"><rect width="6" height="6"/></g>
<g transform="translate(506.625,926.625) scale(3.605)"><rect width="6" height="6"/></g>
<g transform="translate(527.625,926.625) scale(3.605)"><rect width="6" height="6"/></g>
<g transform="translate(590.625,926.625) scale(3.605)"><rect width="6" height="6"/></g>
<g transform="translate(611.625,926.625) scale(3.605)"><rect width="6" height="6"/></g>
<g transform="translate(674.625,926.625) scale(3.605)"><rect width="6" height="6"/></g>
<g transform="translate(695.625,926.625) scale(3.605)"><rect width="6" height="6"/></g>
<g transform="translate(758.625,926.625) scale(3.605)"><rect width="6" height="6"/></g>
<g transform="translate(779.625,926.625) scale(3.605)"><rect width="6" height="6"/></g>
<g transform="translate(821.625,926.625) scale(3.605)"><rect width="6" height="6"/></g>
<g transform="translate(863.625,926.625) scale(3.605)"><rect width="6" height="6"/></g>
<g transform="translate(884.625,926.625) scale(3.605)"><rect width="6" height="6"/></g>
<g transform="translate(905.625,926.625) scale(3.605)"><rect width="6" height="6"/></g>
<g transform="translate(926.625,926.625) scale(3.605)"><rect width="6" height="6"/></g>
<g transform="translate(275.625,947.625) scale(3.605)"><rect width="6" height="6"/></g>
<g transform="translate(338.625,947.625) scale(3.605)"><rect width="6" height="6"/></g>
<g transform="translate(380.625,947.625) scale(3.605)"><rect width="6" height="6"/></g>
<g transform="translate(401.625,947.625) scale(3.605)"><rect width="6" height="6"/></g>
<g transform="translate(443.625,947.625) scale(3.605)"><rect width="6" height="6"/></g>
<g transform="translate(506.625,947.625) scale(3.605)"><rect width="6" height="6"/></g>
<g transform="translate(548.625,947.625) scale(3.605)"><rect width="6" height="6"/></g>
<g transform="translate(569.625,947.625) scale(3.605)"><rect width="6" height="6"/></g>
<g transform="translate(611.625,947.625) scale(3.605)"><rect width="6" height="6"/></g>
<g transform="translate(632.625,947.625) scale(3.605)"><rect width="6" height="6"/></g>
<g transform="translate(674.625,947.625) scale(3.605)"><rect width="6" height="6"/></g>
<g transform="translate(716.625,947.625) scale(3.605)"><rect width="6" height="6"/></g>
<g transform="translate(758.625,947.625) scale(3.605)"><rect width="6" height="6"/></g>
<g transform="translate(779.625,947.625) scale(3.605)"><rect width="6" height="6"/></g>
<g transform="translate(842.625,947.625) scale(3.605)"><rect width="6" height="6"/></g>
<g transform="translate(863.625,947.625) scale(3.605)"><rect width="6" height="6"/></g>
<g transform="translate(107.625,107.625)"><g transform="scale(10.5)"><path d="M0,0v14h14V0H0z M12,12H2V2h10V12z"/></g></g>
<g transform="translate(821.625,107.625)"><g transform="scale(10.5)"><path d="M0,0v14h14V0H0z M12,12H2V2h10V12z"/></g></g>
<g transform="translate(107.625,821.625)"><g transform="scale(10.5)"><path d="M0,0v14h14V0H0z M12,12H2V2h10V12z"/></g></g>
<g transform="translate(149.625,149.625)"><g transform="scale(10.5)"><rect width="6" height="6"/></g></g>
<g transform="translate(863.625,149.625)"><g transform="scale(10.5)"><rect width="6" height="6"/></g></g>
<g transform="translate(149.625,863.625)"><g transform="scale(10.5)"><rect width="6" height="6"/></g></g>
</g></svg>
